<svg xmlns="http://www.w3.org/2000/svg" viewBox="0 0 64 64" role="img" aria-labelledby="title">
  <title>SpotPack</title>
  <defs>
    <linearGradient id="background" x1="8" y1="4" x2="56" y2="60" gradientUnits="userSpaceOnUse">
      <stop stop-color="#8B5CF6" />
      <stop offset="1" stop-color="#312E81" />
    </linearGradient>
    <linearGradient id="mark" x1="22" y1="16" x2="45" y2="49" gradientUnits="userSpaceOnUse">
      <stop stop-color="#FFFFFF" />
      <stop offset="1" stop-color="#DDD6FE" />
    </linearGradient>
  </defs>
  <rect width="64" height="64" rx="18" fill="#070910" />
  <rect x="4" y="4" width="56" height="56" rx="15" fill="url(#background)" />
  <path d="M42.5 17.5H27.8c-5.2 0-8.3 2.8-8.3 6.8 0 4.6 3.8 6.1 8.2 7.1l5.2 1.2c2.3.5 3.2 1.2 3.2 2.5 0 1.5-1.4 2.4-4.1 2.4H19.5v8h13.8c6.7 0 10.7-3 10.7-8.1 0-4.5-2.8-6.7-8.4-7.9l-5.1-1.1c-2.1-.5-3.1-1.1-3.1-2.2 0-1.1 1.1-1.8 3.1-1.8h12z" fill="url(#mark)" />
</svg>
